<svg xmlns="http://www.w3.org/2000/svg" xmlns:svg="http://www.w3.org/2000/svg" id="svg3003" width="900" height="900" version="1.1"><metadata id="metadata3008"/><g id="layer1" transform="translate(0,-152.3622)"><path style="fill:#023914;fill-opacity:1;stroke:none" id="path3017" d="m 5,192.36213 c 0,-19.95535 15,-35 35,-35 20,0 800,0 820,0 20,0 35,15 35,35 0,20 0,799.99997 0,819.99997 0,20 -15,37.0001 -35,37.0001 -20,0 -800,0 -820,0 -20,0 -35,-17.0001 -35,-37.0001 0,-20 0,-803.50081 0,-819.99997 z"/><path style="fill:none;stroke:#042504;stroke-width:5;stroke-linecap:butt;stroke-linejoin:miter;stroke-miterlimit:4;stroke-opacity:1;stroke-dasharray:none" id="path3815" d="m 100,157.36213 c 0,165 0,889.99997 0,889.99997"/><path style="fill:none;stroke:#042504;stroke-width:5;stroke-linecap:butt;stroke-linejoin:miter;stroke-miterlimit:4;stroke-opacity:1;stroke-dasharray:none" id="path3815-2" d="m 200,157.36204 c 0,165 0,890.00026 0,890.00026"/><path style="fill:none;stroke:#042504;stroke-width:5;stroke-linecap:butt;stroke-linejoin:miter;stroke-miterlimit:4;stroke-opacity:1;stroke-dasharray:none" id="path3815-2-4" d="m 300,157.36224 c 0,165 0,890.00006 0,890.00006"/><path style="fill:none;stroke:#042504;stroke-width:5;stroke-linecap:butt;stroke-linejoin:miter;stroke-miterlimit:4;stroke-opacity:1;stroke-dasharray:none" id="path3815-2-1" d="m 400,157.36184 c 0,165 0,890.00046 0,890.00046"/><path style="fill:none;stroke:#042504;stroke-width:4.99999857;stroke-linecap:butt;stroke-linejoin:miter;stroke-miterlimit:4;stroke-opacity:1;stroke-dasharray:none" id="path3815-2-1-4" d="m 500,157.3623 c 0,164.9999 0,890 0,890"/><path style="fill:none;stroke:#042504;stroke-width:4.99999762;stroke-linecap:butt;stroke-linejoin:miter;stroke-miterlimit:4;stroke-opacity:1;stroke-dasharray:none" id="path3815-2-1-4-7" d="m 600,157.3623 c 0,164.99986 0,890 0,890"/><path style="fill:none;stroke:#042504;stroke-width:4.99999857;stroke-linecap:butt;stroke-linejoin:miter;stroke-miterlimit:4;stroke-opacity:1;stroke-dasharray:none" id="path3815-2-1-4-7-4" d="m 700,157.3623 c 0,164.9999 0,890 0,890"/><path style="fill:none;stroke:#042504;stroke-width:4.99999857;stroke-linecap:butt;stroke-linejoin:miter;stroke-miterlimit:4;stroke-opacity:1;stroke-dasharray:none" id="path3815-2-1-4-7-4-1" d="m 800,157.3623 c 0,164.9999 0,890 0,890"/><path style="fill:none;stroke:#042504;stroke-width:5.00017738;stroke-linecap:butt;stroke-linejoin:miter;stroke-miterlimit:4;stroke-opacity:1;stroke-dasharray:none" id="path3943" d="m 5.00018,252.36213 889.99964,0"/><path style="fill:none;stroke:#042504;stroke-width:5.00017738;stroke-linecap:butt;stroke-linejoin:miter;stroke-miterlimit:4;stroke-opacity:1;stroke-dasharray:none" id="path3943-1" d="m 5.00018,352.36213 889.99964,0"/><path style="fill:none;stroke:#042504;stroke-width:5.00017738;stroke-linecap:butt;stroke-linejoin:miter;stroke-miterlimit:4;stroke-opacity:1;stroke-dasharray:none" id="path3943-9" d="m 5.00018,452.36213 889.99964,0"/><path style="fill:none;stroke:#042504;stroke-width:5.00017738;stroke-linecap:butt;stroke-linejoin:miter;stroke-miterlimit:4;stroke-opacity:1;stroke-dasharray:none" id="path3943-5" d="m 5.00018,552.36233 889.99964,0"/><path style="fill:none;stroke:#042504;stroke-width:5.00017738;stroke-linecap:butt;stroke-linejoin:miter;stroke-miterlimit:4;stroke-opacity:1;stroke-dasharray:none" id="path3943-3" d="m 5.00018,652.3623 889.99964,0"/><path style="fill:none;stroke:#042504;stroke-width:5.00017738;stroke-linecap:butt;stroke-linejoin:miter;stroke-miterlimit:4;stroke-opacity:1;stroke-dasharray:none" id="path3943-2" d="m 5.00018,752.3623 889.99964,0"/><path style="fill:none;stroke:#042504;stroke-width:5.00017738;stroke-linecap:butt;stroke-linejoin:miter;stroke-miterlimit:4;stroke-opacity:1;stroke-dasharray:none" id="path3943-7" d="m 5.00018,852.3623 889.99964,0"/><path style="fill:none;stroke:#042504;stroke-width:5.00017738;stroke-linecap:butt;stroke-linejoin:miter;stroke-miterlimit:4;stroke-opacity:1;stroke-dasharray:none" id="path3943-34" d="m 5.00018,952.3623 889.99964,0"/><path style="fill:none;stroke:#65391b;stroke-width:6;stroke-linecap:butt;stroke-linejoin:miter;stroke-miterlimit:4;stroke-opacity:1;stroke-dasharray:none" id="path3017-8" d="m 3,192.36218 c 0,-19.9554 17,-37 37,-37 20,0 800,0 820,0 20,0 37,17 37,37 0,20 0,800 0,820.00002 0,20 -17,37 -37,37 -20,0 -800,0 -820,0 -20,0 -37,-17 -37,-37 0,-20.00002 0,-803.50082 0,-820.00002 z"/></g></svg>