<svg xmlns="http://www.w3.org/2000/svg" xmlns:svg="http://www.w3.org/2000/svg" id="svg3003" width="900" height="900" version="1.1"><metadata id="metadata3008"/><g id="layer1" transform="translate(0,-152.3622)"><path style="fill:none;fill-opacity:1;stroke:none" id="path3017" d="m 5,192.36213 c 0,-19.95535 15,-35 35,-35 20,0 800,0 820,0 20,0 35,15 35,35 0,20 0,799.99997 0,819.99997 0,20 -15,37.0001 -35,37.0001 -20,0 -800,0 -820,0 -20,0 -35,-17.0001 -35,-37.0001 0,-20 0,-803.50081 0,-819.99997 z"/><path style="fill:none;stroke:#fff;stroke-width:6;stroke-linecap:butt;stroke-linejoin:miter;stroke-miterlimit:4;stroke-opacity:.50196081;stroke-dasharray:none" id="path3017-8" d="m 3,192.36218 c 0,-19.9554 17,-37 37,-37 20,0 800,0 820,0 20,0 37,17 37,37 0,20 0,800 0,820.00002 0,20 -17,37 -37,37 -20,0 -800,0 -820,0 -20,0 -37,-17 -37,-37 0,-20.00002 0,-803.50082 0,-820.00002 z"/><path id="path3753" d="m 3,192.36218 c 0,-19.9554 17,-37 37,-37 20,0 800,0 820,0 20,0 37,17 37,37 0,20 0,800 0,820.00002 0,20 -17,37 -37,37 -20,0 -800,0 -820,0 -20,0 -37,-17 -37,-37 0,-20.00002 0,-803.50082 0,-820.00002 z" style="fill:none;stroke:#fff;stroke-width:6;stroke-linecap:butt;stroke-linejoin:miter;stroke-miterlimit:4;stroke-opacity:.50196081;stroke-dasharray:none"/></g></svg>