<svg xmlns="http://www.w3.org/2000/svg" xmlns:svg="http://www.w3.org/2000/svg" xmlns:xlink="http://www.w3.org/1999/xlink" id="svg14855" width="600" height="600" version="1.0"><metadata id="metadata4279"/><defs id="defs14857"><linearGradient id="linearGradient15834"><stop id="stop15842" offset="0" style="stop-color:red;stop-opacity:1"/><stop style="stop-color:#a50000;stop-opacity:1" id="stop15838" offset="1"/></linearGradient><radialGradient id="radialGradient3780" cx="290.782" cy="495.702" r="225.714" fx="290.782" fy="495.702" gradientTransform="matrix(-0.8972722,0.98625789,-0.98625805,-0.89727229,1139.4476,701.98864)" gradientUnits="userSpaceOnUse" xlink:href="#linearGradient15834"/></defs><g id="layer1" transform="translate(-154.31796,-306.22049)"><g id="g3957" transform="matrix(0.9968285,0,0,0.9968285,75.489418,84.413304)"><g id="g3790"><path style="fill:url(#radialGradient3780);fill-opacity:1;stroke:none" id="path14863" d="m 605.71428,535.2193 c 0,124.65855 -101.05573,225.71428 -225.71428,225.71428 -124.65855,0 -225.71428,-101.05573 -225.71428,-225.71428 0,-124.65855 101.05573,-225.71428 225.71428,-225.71428 124.65855,0 225.71428,101.05573 225.71428,225.71428 z" transform="matrix(-0.6729496,-0.7396884,0.7396884,-0.6729496,239.85916,1177.7659)"/><path id="path3788" d="m -67.396118,-155.72037 c 0,54.30729 -49.960672,98.332041 -111.590282,98.332041 -61.62962,0 -111.59029,-44.024751 -111.59029,-98.332041 0,-54.30728 49.96067,-98.33204 111.59029,-98.33204 61.62961,0 111.590282,44.02476 111.590282,98.33204 z" transform="matrix(2.0131106,0,0,2.2845412,741.78893,890.82263)" style="fill:none;stroke:#760000;stroke-width:4.678;stroke-linecap:butt;stroke-linejoin:miter;stroke-miterlimit:4;stroke-opacity:1;stroke-dasharray:none"/></g></g></g></svg>